<mxfile host="app.diagrams.net" modified="2020-12-18T10:02:18.453Z" agent="5.0 (X11; Linux x86_64) AppleWebKit/537.36 (KHTML, like Gecko) Chrome/87.0.4280.88 Safari/537.36" etag="e-ZebBjOEJDPajqWlctb" version="14.0.5" type="github">
  <diagram id="zNfq5neE3M64kurw_uy2" name="Page-1">
    <mxGraphModel dx="1605" dy="876" grid="1" gridSize="10" guides="1" tooltips="1" connect="1" arrows="1" fold="1" page="1" pageScale="1" pageWidth="827" pageHeight="1169" math="0" shadow="0">
      <root>
        <mxCell id="0" />
        <mxCell id="1" parent="0" />
        <mxCell id="JLZIl9Gp42pbkCICVa5f-4" style="edgeStyle=orthogonalEdgeStyle;rounded=0;orthogonalLoop=1;jettySize=auto;html=1;dashed=1;fillColor=#1ba1e2;strokeColor=#007FFF;" parent="1" source="JLZIl9Gp42pbkCICVa5f-2" target="JLZIl9Gp42pbkCICVa5f-3" edge="1">
          <mxGeometry relative="1" as="geometry" />
        </mxCell>
        <mxCell id="JLZIl9Gp42pbkCICVa5f-2" value="User" style="html=1;verticalLabelPosition=bottom;align=center;labelBackgroundColor=#ffffff;verticalAlign=top;strokeWidth=2;shadow=0;dashed=0;shape=mxgraph.ios7.icons.user;strokeColor=#007FFF;" parent="1" vertex="1">
          <mxGeometry x="400" y="30" width="50" height="50" as="geometry" />
        </mxCell>
        <mxCell id="JLZIl9Gp42pbkCICVa5f-29" style="edgeStyle=orthogonalEdgeStyle;rounded=0;orthogonalLoop=1;jettySize=auto;html=1;dashed=1;fontSize=10;fillColor=#1ba1e2;strokeColor=#007FFF;" parent="1" source="JLZIl9Gp42pbkCICVa5f-3" target="JLZIl9Gp42pbkCICVa5f-8" edge="1">
          <mxGeometry relative="1" as="geometry">
            <Array as="points">
              <mxPoint x="340" y="180" />
            </Array>
          </mxGeometry>
        </mxCell>
        <mxCell id="JLZIl9Gp42pbkCICVa5f-30" style="edgeStyle=orthogonalEdgeStyle;rounded=0;orthogonalLoop=1;jettySize=auto;html=1;dashed=1;fontSize=10;fillColor=#1ba1e2;strokeColor=#006EAF;" parent="1" source="JLZIl9Gp42pbkCICVa5f-3" target="JLZIl9Gp42pbkCICVa5f-9" edge="1">
          <mxGeometry relative="1" as="geometry">
            <mxPoint x="468.5" y="160" as="sourcePoint" />
          </mxGeometry>
        </mxCell>
        <mxCell id="JLZIl9Gp42pbkCICVa5f-32" style="edgeStyle=orthogonalEdgeStyle;rounded=0;orthogonalLoop=1;jettySize=auto;html=1;dashed=1;fontSize=10;fillColor=#1ba1e2;strokeColor=#007FFF;" parent="1" source="JLZIl9Gp42pbkCICVa5f-3" target="JLZIl9Gp42pbkCICVa5f-7" edge="1">
          <mxGeometry relative="1" as="geometry" />
        </mxCell>
        <mxCell id="JLZIl9Gp42pbkCICVa5f-39" style="edgeStyle=orthogonalEdgeStyle;rounded=0;orthogonalLoop=1;jettySize=auto;html=1;dashed=1;fontSize=10;jumpStyle=arc;fillColor=#1ba1e2;strokeColor=#007FFF;" parent="1" edge="1">
          <mxGeometry relative="1" as="geometry">
            <mxPoint x="142.61817604250842" y="293" as="targetPoint" />
            <mxPoint x="396.7157287525381" y="153" as="sourcePoint" />
            <Array as="points">
              <mxPoint x="250" y="153" />
              <mxPoint x="250" y="293" />
            </Array>
          </mxGeometry>
        </mxCell>
        <mxCell id="JLZIl9Gp42pbkCICVa5f-41" style="edgeStyle=orthogonalEdgeStyle;rounded=0;orthogonalLoop=1;jettySize=auto;html=1;dashed=1;fontSize=10;fillColor=#1ba1e2;strokeColor=#007FFF;" parent="1" source="JLZIl9Gp42pbkCICVa5f-3" target="JLZIl9Gp42pbkCICVa5f-15" edge="1">
          <mxGeometry relative="1" as="geometry">
            <Array as="points">
              <mxPoint x="196" y="140" />
            </Array>
          </mxGeometry>
        </mxCell>
        <mxCell id="JLZIl9Gp42pbkCICVa5f-46" style="edgeStyle=orthogonalEdgeStyle;rounded=0;orthogonalLoop=1;jettySize=auto;html=1;entryX=0;entryY=0.5;entryDx=0;entryDy=0;dashed=1;fontSize=10;fillColor=#1ba1e2;strokeColor=#007FFF;" parent="1" edge="1">
          <mxGeometry relative="1" as="geometry">
            <mxPoint x="395" y="167" as="sourcePoint" />
            <mxPoint x="300" y="322" as="targetPoint" />
            <Array as="points">
              <mxPoint x="270" y="167" />
              <mxPoint x="270" y="322" />
            </Array>
          </mxGeometry>
        </mxCell>
        <mxCell id="JLZIl9Gp42pbkCICVa5f-48" style="edgeStyle=orthogonalEdgeStyle;rounded=0;jumpStyle=arc;jumpSize=10;orthogonalLoop=1;jettySize=auto;html=1;dashed=1;fontSize=10;fillColor=#1ba1e2;strokeColor=#007FFF;" parent="1" target="JLZIl9Gp42pbkCICVa5f-14" edge="1">
          <mxGeometry relative="1" as="geometry">
            <mxPoint x="419" y="130" as="sourcePoint" />
            <mxPoint x="349.9799999999999" y="95.36000000000001" as="targetPoint" />
            <Array as="points">
              <mxPoint x="350" y="130" />
            </Array>
          </mxGeometry>
        </mxCell>
        <mxCell id="JLZIl9Gp42pbkCICVa5f-3" value="&lt;font size=&quot;1&quot; color=&quot;#007fff&quot;&gt;&lt;b style=&quot;font-size: 11px&quot;&gt;Front-end&lt;/b&gt;&lt;/font&gt;" style="ellipse;whiteSpace=wrap;html=1;aspect=fixed;strokeWidth=2;strokeColor=#007FFF;" parent="1" vertex="1">
          <mxGeometry x="395" y="130" width="60" height="60" as="geometry" />
        </mxCell>
        <mxCell id="JLZIl9Gp42pbkCICVa5f-6" style="edgeStyle=orthogonalEdgeStyle;rounded=0;orthogonalLoop=1;jettySize=auto;html=1;dashed=1;curved=1;fillColor=#1ba1e2;strokeColor=#006EAF;" parent="1" source="JLZIl9Gp42pbkCICVa5f-5" target="JLZIl9Gp42pbkCICVa5f-3" edge="1">
          <mxGeometry relative="1" as="geometry">
            <Array as="points">
              <mxPoint x="440" y="95" />
            </Array>
          </mxGeometry>
        </mxCell>
        <mxCell id="JLZIl9Gp42pbkCICVa5f-5" value="&lt;b&gt;&lt;font color=&quot;#007fff&quot;&gt;&lt;font style=&quot;font-size: 10px&quot;&gt;Load &lt;/font&gt;&lt;font style=&quot;font-size: 10px&quot;&gt;Generator&lt;/font&gt;&lt;/font&gt;&lt;/b&gt;" style="rounded=1;whiteSpace=wrap;html=1;strokeWidth=2;strokeColor=#007FFF;" parent="1" vertex="1">
          <mxGeometry x="500" y="80" width="80" height="30" as="geometry" />
        </mxCell>
        <mxCell id="JLZIl9Gp42pbkCICVa5f-35" style="edgeStyle=orthogonalEdgeStyle;rounded=0;orthogonalLoop=1;jettySize=auto;html=1;dashed=1;fontSize=10;jumpStyle=arc;jumpSize=10;fillColor=#1ba1e2;strokeColor=#007FFF;" parent="1" source="JLZIl9Gp42pbkCICVa5f-8" target="JLZIl9Gp42pbkCICVa5f-11" edge="1">
          <mxGeometry relative="1" as="geometry" />
        </mxCell>
        <mxCell id="JLZIl9Gp42pbkCICVa5f-36" style="edgeStyle=orthogonalEdgeStyle;rounded=0;orthogonalLoop=1;jettySize=auto;html=1;dashed=1;fontSize=10;jumpStyle=arc;jumpSize=10;fillColor=#1ba1e2;strokeColor=#007FFF;" parent="1" source="JLZIl9Gp42pbkCICVa5f-8" target="JLZIl9Gp42pbkCICVa5f-10" edge="1">
          <mxGeometry relative="1" as="geometry">
            <Array as="points">
              <mxPoint x="170" y="221" />
              <mxPoint x="170" y="152" />
            </Array>
          </mxGeometry>
        </mxCell>
        <mxCell id="JLZIl9Gp42pbkCICVa5f-37" style="edgeStyle=orthogonalEdgeStyle;rounded=0;orthogonalLoop=1;jettySize=auto;html=1;dashed=1;fontSize=10;jumpStyle=arc;jumpSize=10;fillColor=#1ba1e2;strokeColor=#007FFF;" parent="1" source="JLZIl9Gp42pbkCICVa5f-8" target="JLZIl9Gp42pbkCICVa5f-12" edge="1">
          <mxGeometry relative="1" as="geometry">
            <Array as="points">
              <mxPoint x="170" y="221" />
              <mxPoint x="170" y="270" />
            </Array>
          </mxGeometry>
        </mxCell>
        <mxCell id="JLZIl9Gp42pbkCICVa5f-38" style="edgeStyle=orthogonalEdgeStyle;rounded=0;orthogonalLoop=1;jettySize=auto;html=1;dashed=1;fontSize=10;fillColor=#1ba1e2;strokeColor=#007FFF;" parent="1" source="JLZIl9Gp42pbkCICVa5f-8" target="JLZIl9Gp42pbkCICVa5f-13" edge="1">
          <mxGeometry relative="1" as="geometry" />
        </mxCell>
        <mxCell id="JLZIl9Gp42pbkCICVa5f-44" style="rounded=0;orthogonalLoop=1;jettySize=auto;html=1;dashed=1;fontSize=10;fillColor=#1ba1e2;strokeColor=#007FFF;" parent="1" source="JLZIl9Gp42pbkCICVa5f-8" target="JLZIl9Gp42pbkCICVa5f-7" edge="1">
          <mxGeometry relative="1" as="geometry">
            <Array as="points">
              <mxPoint x="370" y="221" />
              <mxPoint x="370" y="261" />
            </Array>
          </mxGeometry>
        </mxCell>
        <mxCell id="JLZIl9Gp42pbkCICVa5f-47" style="edgeStyle=orthogonalEdgeStyle;rounded=0;orthogonalLoop=1;jettySize=auto;html=1;dashed=1;fontSize=10;jumpStyle=arc;jumpSize=10;fillColor=#1ba1e2;strokeColor=#007FFF;" parent="1" source="JLZIl9Gp42pbkCICVa5f-8" target="JLZIl9Gp42pbkCICVa5f-14" edge="1">
          <mxGeometry relative="1" as="geometry" />
        </mxCell>
        <mxCell id="JLZIl9Gp42pbkCICVa5f-8" value="&lt;font color=&quot;#007fff&quot;&gt;&lt;font size=&quot;1&quot;&gt;&lt;b style=&quot;font-size: 11px&quot;&gt;Checkout&lt;/b&gt;&lt;/font&gt;&lt;span style=&quot;font-family: monospace ; font-size: 0px&quot;&gt;%3CmxGraphModel%3E%3Croot%3E%3CmxCell%20id%3D%220%22%2F%3E%3CmxCell%20id%3D%221%22%20parent%3D%220%22%2F%3E%3CmxCell%20id%3D%222%22%20value%3D%22%26lt%3Bfont%20color%3D%26quot%3B%2366b2ff%26quot%3B%20size%3D%26quot%3B1%26quot%3B%26gt%3B%26lt%3Bb%20style%3D%26quot%3Bfont-size%3A%2011px%26quot%3B%26gt%3BCart%26lt%3B%2Fb%26gt%3B%26lt%3B%2Ffont%26gt%3B%22%20style%3D%22ellipse%3BwhiteSpace%3Dwrap%3Bhtml%3D1%3Baspect%3Dfixed%3BstrokeColor%3D%2366B2FF%3BstrokeWidth%3D2%3B%22%20vertex%3D%221%22%20parent%3D%221%22%3E%3CmxGeometry%20x%3D%22500%22%20y%3D%22130%22%20width%3D%2260%22%20height%3D%2260%22%20as%3D%22geometry%22%2F%3E%3C%2FmxCell%3E%3C%2Froot%3E%3C%2FmxGraphModel%3E&lt;/span&gt;&lt;/font&gt;" style="ellipse;whiteSpace=wrap;html=1;aspect=fixed;strokeWidth=2;strokeColor=#007FFF;" parent="1" vertex="1">
          <mxGeometry x="300" y="191" width="60" height="60" as="geometry" />
        </mxCell>
        <mxCell id="JLZIl9Gp42pbkCICVa5f-9" value="&lt;span style=&quot;font-size: 11px&quot;&gt;&lt;b&gt;&lt;font color=&quot;#007fff&quot;&gt;Ad&lt;/font&gt;&lt;/b&gt;&lt;/span&gt;" style="ellipse;whiteSpace=wrap;html=1;aspect=fixed;strokeWidth=2;strokeColor=#007FFF;" parent="1" vertex="1">
          <mxGeometry x="500" y="130" width="60" height="60" as="geometry" />
        </mxCell>
        <mxCell id="JLZIl9Gp42pbkCICVa5f-10" value="&lt;span style=&quot;font-size: 11px&quot;&gt;&lt;b&gt;&lt;font color=&quot;#007fff&quot;&gt;Email&lt;/font&gt;&lt;/b&gt;&lt;/span&gt;" style="ellipse;whiteSpace=wrap;html=1;aspect=fixed;strokeWidth=2;strokeColor=#007FFF;" parent="1" vertex="1">
          <mxGeometry x="84" y="127" width="60" height="60" as="geometry" />
        </mxCell>
        <mxCell id="JLZIl9Gp42pbkCICVa5f-11" value="&lt;span style=&quot;font-size: 11px&quot;&gt;&lt;b&gt;&lt;font color=&quot;#007fff&quot;&gt;Payment&lt;/font&gt;&lt;/b&gt;&lt;/span&gt;&lt;span style=&quot;color: rgb(95 , 166 , 237) ; font-family: monospace ; font-size: 0px&quot;&gt;%3CmxGraphModel%3E%3Croot%3E%3CmxCell%20id%3D%220%22%2F%3E%3CmxCell%20id%3D%221%22%20parent%3D%220%22%2F%3E%3CmxCell%20id%3D%222%22%20value%3D%22%26lt%3Bfont%20color%3D%26quot%3B%2366b2ff%26quot%3B%20size%3D%26quot%3B1%26quot%3B%26gt%3B%26lt%3Bb%20style%3D%26quot%3Bfont-size%3A%2011px%26quot%3B%26gt%3BCheckout%26lt%3B%2Fb%26gt%3B%26lt%3B%2Ffont%26gt%3B%26lt%3Bspan%20style%3D%26quot%3Bcolor%3A%20rgba(0%20%2C%200%20%2C%200%20%2C%200)%20%3B%20font-family%3A%20monospace%20%3B%20font-size%3A%200px%26quot%3B%26gt%3B%253CmxGraphModel%253E%253Croot%253E%253CmxCell%2520id%253D%25220%2522%252F%253E%253CmxCell%2520id%253D%25221%2522%2520parent%253D%25220%2522%252F%253E%253CmxCell%2520id%253D%25222%2522%2520value%253D%2522%2526lt%253Bfont%2520color%253D%2526quot%253B%252366b2ff%2526quot%253B%2520size%253D%2526quot%253B1%2526quot%253B%2526gt%253B%2526lt%253Bb%2520style%253D%2526quot%253Bfont-size%253A%252011px%2526quot%253B%2526gt%253BCart%2526lt%253B%252Fb%2526gt%253B%2526lt%253B%252Ffont%2526gt%253B%2522%2520style%253D%2522ellipse%253BwhiteSpace%253Dwrap%253Bhtml%253D1%253Baspect%253Dfixed%253BstrokeColor%253D%252366B2FF%253BstrokeWidth%253D2%253B%2522%2520vertex%253D%25221%2522%2520parent%253D%25221%2522%253E%253CmxGeometry%2520x%253D%2522500%2522%2520y%253D%2522130%2522%2520width%253D%252260%2522%2520height%253D%252260%2522%2520as%253D%2522geometry%2522%252F%253E%253C%252FmxCell%253E%253C%252Froot%253E%253C%252FmxGraphModel%253E%26lt%3B%2Fspan%26gt%3B%22%20style%3D%22ellipse%3BwhiteSpace%3Dwrap%3Bhtml%3D1%3Baspect%3Dfixed%3BstrokeColor%3D%2366B2FF%3BstrokeWidth%3D2%3B%22%20vertex%3D%221%22%20parent%3D%221%22%3E%3CmxGeometry%20x%3D%22280%22%20y%3D%22120%22%20width%3D%2260%22%20height%3D%2260%22%20as%3D%22geometry%22%2F%3E%3C%2FmxCell%3E%3C%2Froot%3E%3C%2FmxGraphModel%3E&lt;/span&gt;" style="ellipse;whiteSpace=wrap;html=1;aspect=fixed;strokeWidth=2;strokeColor=#007FFF;" parent="1" vertex="1">
          <mxGeometry x="30" y="191" width="60" height="60" as="geometry" />
        </mxCell>
        <mxCell id="JLZIl9Gp42pbkCICVa5f-12" value="&lt;span style=&quot;font-size: 11px&quot;&gt;&lt;b&gt;&lt;font color=&quot;#007fff&quot;&gt;Shipping&lt;/font&gt;&lt;/b&gt;&lt;/span&gt;" style="ellipse;whiteSpace=wrap;html=1;aspect=fixed;strokeWidth=2;strokeColor=#007FFF;" parent="1" vertex="1">
          <mxGeometry x="84" y="251" width="60" height="60" as="geometry" />
        </mxCell>
        <mxCell id="JLZIl9Gp42pbkCICVa5f-13" value="&lt;font color=&quot;#007fff&quot;&gt;&lt;span style=&quot;font-size: 11px&quot;&gt;&lt;b&gt;Currency&lt;/b&gt;&lt;/span&gt;&lt;span style=&quot;font-family: monospace ; font-size: 0px&quot;&gt;%3CmxGraphModel%3E%3Croot%3E%3CmxCell%20id%3D%220%22%2F%3E%3CmxCell%20id%3D%221%22%20parent%3D%220%22%2F%3E%3CmxCell%20id%3D%222%22%20value%3D%22%26lt%3Bfont%20color%3D%26quot%3B%2366b2ff%26quot%3B%26gt%3B%26lt%3Bspan%20style%3D%26quot%3Bfont-size%3A%2011px%26quot%3B%26gt%3B%26lt%3Bb%26gt%3BShipping%26lt%3B%2Fb%26gt%3B%26lt%3B%2Fspan%26gt%3B%26lt%3B%2Ffont%26gt%3B%22%20style%3D%22ellipse%3BwhiteSpace%3Dwrap%3Bhtml%3D1%3Baspect%3Dfixed%3BstrokeColor%3D%2366B2FF%3BstrokeWidth%3D2%3B%22%20vertex%3D%221%22%20parent%3D%221%22%3E%3CmxGeometry%20x%3D%22180%22%20y%3D%22200%22%20width%3D%2260%22%20height%3D%2260%22%20as%3D%22geometry%22%2F%3E%3C%2FmxCell%3E%3C%2Froot%3E%3C%2FmxGraphModel%3E&lt;/span&gt;&lt;/font&gt;" style="ellipse;whiteSpace=wrap;html=1;aspect=fixed;strokeWidth=2;strokeColor=#007FFF;" parent="1" vertex="1">
          <mxGeometry x="300" y="285" width="60" height="60" as="geometry" />
        </mxCell>
        <mxCell id="JLZIl9Gp42pbkCICVa5f-14" value="&lt;span style=&quot;font-size: 11px&quot;&gt;&lt;b&gt;&lt;font color=&quot;#007fff&quot;&gt;Product Catalogue&lt;/font&gt;&lt;/b&gt;&lt;/span&gt;" style="ellipse;whiteSpace=wrap;html=1;aspect=fixed;strokeWidth=2;strokeColor=#007FFF;" parent="1" vertex="1">
          <mxGeometry x="300" y="51.5" width="60" height="60" as="geometry" />
        </mxCell>
        <mxCell id="JLZIl9Gp42pbkCICVa5f-42" style="edgeStyle=orthogonalEdgeStyle;rounded=0;orthogonalLoop=1;jettySize=auto;html=1;dashed=1;fontSize=10;fillColor=#1ba1e2;strokeColor=#007FFF;" parent="1" source="JLZIl9Gp42pbkCICVa5f-15" target="JLZIl9Gp42pbkCICVa5f-14" edge="1">
          <mxGeometry relative="1" as="geometry" />
        </mxCell>
        <mxCell id="JLZIl9Gp42pbkCICVa5f-15" value="&lt;span style=&quot;font-size: 11px&quot;&gt;&lt;b&gt;&lt;font color=&quot;#007fff&quot;&gt;Recomme-ndation&lt;/font&gt;&lt;/b&gt;&lt;/span&gt;" style="ellipse;whiteSpace=wrap;html=1;aspect=fixed;strokeWidth=2;strokeColor=#007FFF;" parent="1" vertex="1">
          <mxGeometry x="165.5" y="51.5" width="60" height="60" as="geometry" />
        </mxCell>
        <mxCell id="JLZIl9Gp42pbkCICVa5f-18" value="&lt;font style=&quot;font-size: 10px&quot;&gt;Java&lt;/font&gt;" style="text;html=1;align=center;verticalAlign=middle;resizable=0;points=[];autosize=1;" parent="1" vertex="1">
          <mxGeometry x="480" y="120" width="40" height="20" as="geometry" />
        </mxCell>
        <mxCell id="JLZIl9Gp42pbkCICVa5f-7" value="&lt;font size=&quot;1&quot; color=&quot;#007fff&quot;&gt;&lt;b style=&quot;font-size: 11px&quot;&gt;Cart&lt;/b&gt;&lt;/font&gt;" style="ellipse;whiteSpace=wrap;html=1;aspect=fixed;strokeWidth=2;strokeColor=#007FFF;" parent="1" vertex="1">
          <mxGeometry x="395" y="231" width="60" height="60" as="geometry" />
        </mxCell>
        <mxCell id="JLZIl9Gp42pbkCICVa5f-19" value="&lt;font style=&quot;font-size: 10px&quot;&gt;Go&lt;/font&gt;" style="text;html=1;align=center;verticalAlign=middle;resizable=0;points=[];autosize=1;" parent="1" vertex="1">
          <mxGeometry x="384" y="222" width="30" height="20" as="geometry" />
        </mxCell>
        <mxCell id="JLZIl9Gp42pbkCICVa5f-21" value="&lt;font style=&quot;font-size: 10px&quot;&gt;Go&lt;/font&gt;" style="text;html=1;align=center;verticalAlign=middle;resizable=0;points=[];autosize=1;" parent="1" vertex="1">
          <mxGeometry x="290" y="178.5" width="30" height="20" as="geometry" />
        </mxCell>
        <mxCell id="JLZIl9Gp42pbkCICVa5f-22" value="&lt;font style=&quot;font-size: 10px&quot;&gt;Go&lt;/font&gt;" style="text;html=1;align=center;verticalAlign=middle;resizable=0;points=[];autosize=1;" parent="1" vertex="1">
          <mxGeometry x="120" y="236" width="30" height="20" as="geometry" />
        </mxCell>
        <mxCell id="JLZIl9Gp42pbkCICVa5f-23" value="&lt;font style=&quot;font-size: 10px&quot;&gt;NodeJS&lt;/font&gt;" style="text;whiteSpace=wrap;html=1;" parent="1" vertex="1">
          <mxGeometry x="340" y="270" width="40" height="25" as="geometry" />
        </mxCell>
        <mxCell id="JLZIl9Gp42pbkCICVa5f-24" value="&lt;font style=&quot;font-size: 10px&quot;&gt;Go&lt;/font&gt;" style="text;html=1;align=center;verticalAlign=middle;resizable=0;points=[];autosize=1;" parent="1" vertex="1">
          <mxGeometry x="280" y="45" width="30" height="20" as="geometry" />
        </mxCell>
        <mxCell id="JLZIl9Gp42pbkCICVa5f-25" value="Python" style="text;whiteSpace=wrap;html=1;fontSize=10;" parent="1" vertex="1">
          <mxGeometry x="136.5" y="45" width="40" height="30" as="geometry" />
        </mxCell>
        <mxCell id="JLZIl9Gp42pbkCICVa5f-26" value="&lt;font style=&quot;font-size: 10px&quot;&gt;Go&lt;/font&gt;" style="text;html=1;align=center;verticalAlign=middle;resizable=0;points=[];autosize=1;" parent="1" vertex="1">
          <mxGeometry x="440" y="171" width="30" height="20" as="geometry" />
        </mxCell>
        <mxCell id="JLZIl9Gp42pbkCICVa5f-27" value="&lt;font style=&quot;font-size: 10px&quot;&gt;NodeJS&lt;/font&gt;" style="text;whiteSpace=wrap;html=1;" parent="1" vertex="1">
          <mxGeometry x="10" y="173.5" width="40" height="25" as="geometry" />
        </mxCell>
        <mxCell id="JLZIl9Gp42pbkCICVa5f-28" value="Python" style="text;whiteSpace=wrap;html=1;fontSize=10;" parent="1" vertex="1">
          <mxGeometry x="60" y="115" width="40" height="30" as="geometry" />
        </mxCell>
        <mxCell id="GpXS952irWFDbofDflcW-1" value="Redis" style="shape=image;verticalLabelPosition=bottom;labelBackgroundColor=#ffffff;verticalAlign=top;aspect=fixed;imageAspect=0;image=data:image/png,iVBORw0KGgoAAAANSUhEUgAAAgAAAAHCCAYAAACZsHHYAAAABHNCSVQICAgIfAhkiAAAIABJREFUeJzt3XuQHNV96PHfmcfuzr6GXfRidwVGRHkUYCe+4MIqZEUKdrBj/jDEj6IIRsS+JL4ksStgQoKdKnwDlk0qVEwl4ToBgSldwMakrjHxdRwTBV3Hl+SSWLbKMbKkoMfu6jX70K5md2Z6zv1j1TCanZ3pnu6e7j79/fzjZIWklrTT53d+v9/5HREAAAAAAAAAAAAAAAAAAAAAAAAAAAAAAAAAAAAAAAAAABAgFfYDAIgmJZKv/5oWmQnjWQD4jwAASCAlku9Pp/5LPp2+ZH1XdsP6ruzF7+jvveLSruy6n+3tuSirVMN3Q1lr/drZhYlDpfLksVL51LFSefJIqXz4SKl8cLJc2VPRen+n/ywA2kMAABjOXuyvyPVsvaa/9x3X9vdecXlfbiSI36ustf7f02f+7bnCzItHSuWDx0rlr5M1AKKJAAAwjL3gvzc/8NF39Pde8f6hwbeH+TwvTM2++src2R/93cyZJ+as6v8jIACigQAAMMBAOrXtilzP1puG8+/71QsGfmmlFH7Yylrrx04U/v6rhZmnKRkA4YrkSwJAc7W7/A8P568LKqUftBemZl99rjDz4r/MF58kGAA6iwAAiAklkh/tyt64qb/3lz8ztvY3orrLbxfBANBZRr1AABONdWW3m7roN1JbJqCJEAiO8S8TII4G0qlt780PfDQpi/5Kylrrzx09/pW/mznzxBmr+t2wnwcwSWJfLEDU2It+nGv6Qdo3Xxx/aPLUY5QIAH8QAAAhyii18eq+3K13rVt1O4u+cy9Mzb768OSpRygRAO0jAAA6zG7m++Bw/iN3rL3wPWE/T5xRIgDaRwAAdAh1/WBRIgDc4SUEBIgUf+fVniI4Wio/HvbzAFFFAAD4zE7xf3LdqjvDHsObdGQFgJURAAA+IcUfbTQOAufjJQV4QIo/fmgcBJYQAAAu0cVvDnv88Pfnzj5EVgBJQwAAOESK31xkBZBEvMSAJpRI/pr+3rtI8ScHjYNICgIAoIGxruz2Dw7nP3L7muF3s9tPrkePn/42xwlhKl5swDkD6dS2K3I9W9ntox5ZAZiIAACJxpl9uMVxQpiCAACJREMfvKJxEHHHiw+JwZl9BIWsAOKIAADGo6EPnUJWAHHCyxBGyii18cahwfs+PJy/jt0+wmA3DjJkCFFFAABjmNDQlx0dk/Kxo2E/Bnxk30741ycLO8gKIEoIABB7JjX09W3aLBc9+EUpfPmv5MxL3yEYMAzHCRElsX5ZIrlMbugbe+RR6bt2i4iIzO/ZLVO7npL5770c8lPBb/aQIRoHERYCAMRKEhr6+jZtlrG/+PJ5X7NmpuXMt16UwpOPJSYrkB0dExEx/s9LVgBhMfIFCrOYvNtfSW0WoN78nt1y9vv/LIWndnb2oTogOzomA1uvk/wHbpKuyzbKwV+7zvgAoBbHCdFJBACIJBMa+rzIjo7Jhm9+p+l/Y2cF5na/FOsSQf2ib5vfs1uO3nlHiE8WHo4TohMIABApJjX0ebX23s/KBR++2dF/WzqwX2aefy42jYPZ0TEZvvV26b3q6vMW/VpHP/HxWAc2fiErgKAk+gWLaODK3cayo2Nyya6vSTp/geOfY81My8IPfxDJxsG+TZulf8vWpou+zZqZlp9uuaZDTxYPZAXgNwIAhGYgndr2sdXD95jc0OfV8C23yeq7/qCtnxuFrIC96A9c/z5XgczJhz5vZI+DX16Ymn31ucLMiwwZghe8dNFRSWzo8+pndn/f1eLZSCePE7a76NdKWvNfu8gKwAsCAATObuj74HD+I3esvfA9YT9P3HjJAtQL6jihH4u+LcnNf15wnBBuEQAgMDT0+efS577Rsm7ultesgJ+Lfi2a/7xh9DCc4qUMXyX9+F5QGg0H8oubrEBQi76tdGC/HLrpBt9/3aQiK4BmCADgC3b7wQsiC1DPbhysbcDr27RZhm6+RXqufFsgi34tmv+Cw+hh1ONFjbbR0NdZQWYBGpnfs7sji36tn/ziz3fs90qqffPF8WcKM9/5+tTsfycrkGwEAHAtCfP4o6rZiOC4m35mlxx/8P6wHyNRGDKUbLy84Qi7/WhwMiI4rjj6Fx6OEyYTAQBWRENfNLkZERwXHP2LDrICyUEAgGVo6Is2E7MAHP2LHrIC5uPlDhFhtx83JmUBmPsfffZxQkYPm4UAIOHY7ceXHyOCo4Cjf/HBkCGz8MJPIBr64q9v02ZZ8/ufDnwuQCfQ/BdPDBmKPwKABOH4XrxlR8dkYOt1kv/ATUYs/CI0/5nAzgp8tTDz9NFS+fGwnwfOsQgYjt1+vJm46Nei+c8sZAXihQDAQDT0xZ89ftfUoT8izP03HaOHo48AwCA09MVb0BftRJHXGwkRfYweji4WiZhjtx9v2dExGb719kQt+o24uZEQ8cWQoWghAIgpdvvxZXpd3yv7RsIzL32HYMBQDBmKBhaOGFEi+Wv6e++ioS+ehm+5TXqveafRdX0/WTPTsvDDH1AiMBxZgfAQAMTAQDq17WOrh+/h+F78JKGZrxMoEZiPrEDnsZhEFMf34iuJzXydRInAfC9Mzb76XGHmRUYPB4sAIELshr4PDuc/csfaC98T9vPAOer64eAUgdkYPRwsAoAIyCi18cahwfs+PJy/jt1+fLDoRwclAvMxZMh/BAAh4fhefFHXjzZKBGZj9LB/CAA6jON78URdP54oEZiNrIA3LEAdYB/fu2k4/z52+/GVHR0TEZGuSy6V7g2XLX1t/cXnfmxUsheNSHrVagKECKJEYD6OE7pHABAgdvvJVRssiIh0b7iMYCEiKBGYzR49zHHC1liUfMbxPbhFsBAOOxAoPLUz7EdBQMgKNEcA4JOxrux2ju+hE7KjY02DBRFJ9KkEa2ZarFMnpTwxLuVjx6R85LCIiCwePCCl1w+JiLDzTxiGDDVGAOABu31EXX2wEOdRxPULu4hI+chhWTx4QERESq8fYmFHS3bjIEOGCABc4/ge4iw7OiYbvvmdsB9jmVa7dhZ2+I2sAAGAYzT0wRTDt9wmq+/6g478XqTjEQdJPU7IQtYEu32Y6tLnvhFYn8D8nt1y/MHPsbAjdpI2ZIgAoAF2+zBd36bNMvYXXw7k1z76iY8zeAexl4SsAIvbOfawHhr6kBRjjzzqe0Ng6cB+OXTTDb7+mmitrLWuVEVNLFpSqGgZzijZ0JsJ+7GMYepxwsQHAAPp1LaPrR6+5/Y1w+9mt48kCaIh8ORDn+dcfQcVLS1TlapMVfQbX/vXmTfXp7cNDMrP9WYkl+bV5gfTGgcT+V3B8T1gid8NgQd/7Tpq/x0wVa7KVLkqRb38x2oDANvl/YMynFGyPpfWbHT88cLU7KvPFWZejPNxwkR9IzCsB1jOr4bA6Wd2yfEH7/fhidBIo91+I40CgFpvGxiUS3rSMpRN+fl4iRXnrIDxAQC7faA5vxoCaf7zX1lrPVfRaqXdfiOtAgAbWQH/xa1x0Mh/dI7vAe54bQik+c9fTnf7jTgNAGpd3j8ol+XICvjp0eOnv/3VwszTUW4cNCoA4PheOOzLbGrZ42fr2cNfbNSLo8FrQyDNf/5oVtt3qp0AoNbmC/JkBXxk30749anZ/x61rEDs/4HZ7fvPyWUzft9OZ81ML/3vualxIvLG5DhmvXdGuw2B1sy0/HTLNQE8UTJ42e034jUAsJEV8F/UjhPGNgBgt+9ddnRMBrZeJ9n1F7+xuMfhFrnSgf3njZZlXrx/2mkIpPnPvXZq+075FQDUIivgr6g0DsbqH5NhPe3r27T5jdvg4rLQu2XNTMvCD38g5WPHZG73SwQFbWinIZCjf875vdtvJIgAwEZWwH9hNg7GIgBgWI87dgq/f8tW6b3qaiMXe6dKB/bL2X/9FykfOSxnXvoOC5UDbhoC5/fslqN33hHwE8VbkLv9RoIMAGpdlc/Lhp40Q4Z81OkSQWT/5Ti+5469w89/4KZEL/it2AHB3O6XOLK2AjcNgRz9W1kndvuNdCoAsF3ePygj3SkZ6U539Pc1WadKBJELABjW41zfps3Sv2WrDFz/Pl8b8pLCLhlM7XqKRayOk4ZAmv+W6/Ruv5FOBwC1yAr4L8gSQST+ldjtO5cdHZPhW29n0feZNTMtZ771IpmBGq0aAjn696awdvuNhBkA2MgK+M++qvivTxZ2+JUVCC0A4PieO32bNsvQzbf4fnsblisd2C8zzz+X+MWtVUNg0pv/orDbbyQKAUAtsgL+s3sFjpbKj3v5dTr+L8LxPXeGb7lNhj/+W+z2Q2BnBQpPPpbYhW6lhsAkH/2L0m6/kagFADY7K7C6K8VxQp/smy+O/97hifvaDQQ68o/Abt89Fv5omX5mVyIDgezomFyy62vLvg+T1vxX1lqfLFXVgqUjtdtvJKoBQC2uKfZXu4FAoH/77Pbd69u0WS568Iss/BFkzUxL4ct/lbjSQH1DYJLm/kd9t99IHAIAGxcS+evR46e//aXjp+902izo+184u/32ZEfHZO29n6HGHwOlA/vlxJ9+IVE74NqGQNOb/+zdfpwW/VpxCgBqXd4/KJf3kRXwqqy1fu9/HPpNJ9kA3/6mM0ptvHFo8D52++6R7o+nJNXB7YZAk4/++XERTxTENQCwkRXwx2ePTD751cLM7zYbKOT5jMZAOrXtv6298K8eu2z9w1vz/W9L8w/mytp7PysX/tffllRPT9iPApd6rrhScldcKcUf/LtUz8yG/TiBKh85vPRn/bdXZX7P7rAfxzdlrfXxUlUdXqzKGUtLJewH8sH44mLYj+DJydKiHF5YlB/OFVVFZyWXUmQF2rA13/+2rFJv/79zZ78hIg2/Kdr+W7XH8zKwp33tXLyC6LFmpuX1m3/d+AZB+9pnE/6cpuz2G4l7BqARsgLt++yRySefLcx8tNGPuf6LzCi18XfWXvgIC783buatI/qSEgTEWRwb+tphYgBQiwuJ3Lv6R/t/pdHwIMclACWS/9Bw/n/s2njxl9/R3/sz/j5esrD4myfV0yN917xT5v/Py8aXA+JmqlyViUVLTla0LFTDfprgxb0E0MrJ0qL85OyC/OBMUQbTXdKfUZrSc3Mj2eyV356Z+x/1X3f0lzaQTm3beenYVxjT652TGeuIL27Hi4ak7PYbMT0D0AhZgebKWuu37n1tqL4hMNPqJ76zv/dzj1+2/r7gHi05sqNjLP6G67t2i/Rt2pyoI4JRYnJtHyvbNzcr++aW/u/NF+TpFaiTVUqllVpT0dpZAKBE8p9ct+pZav3+WXvvZ8J+BHTAmt//tBwiAOiYJO/2sdzL0zMi06LICrS24t8Mi7+/sqNj1P0TouuyjdK3aXPYj2G0stZ6qlyVg2crcnDBYvHHMvvmZuV/nZySg2dNONzpTdFq/PlomAH40HD+CRZ/fw1svS7sR0AH9W/ZShkgADW7fdK7WBHHBs83sWg1/PqyAGAgndp2//p1twb+RAmTXX9x2I+ADuq96uqwH8EYUb12F9FTm/Yva83iL0t9MYUVMmTLAoCPrR6+J/AnSqDs6GjYj4AOSq9aHfYjGCHuc/kRvJV2+yz+S5+f1xesFf8elgUAt68Zfnewj5RM5WPHwn4EdJB16mTYj2CErFJqpDstq7vIAuB8tVcKs9tfrqy1fu2spZrFzucFABmlNvKXCHhXnhgP+xGMklVKDWWVDGVTdP0nGLt9Z+zFf6XmP1vLOQDwx9zul+SCD98c9mOgQ8j4BCeXVpJLkxVIkqvyednQk669FIgFfwVFS8vBhdaLv0iDAKBoaW5eCsD8914Wa2aaK38TovDkY2E/gvHICpjt8v5BGelOyequFOl9h6bKVXl9wRKnH4NlAcBUpSq5tOdbgtHAmW+9SBYgAUoH9nMpUIeRFTBH7W6f2r5z44uWjC+6u+xiWQAwvliVoUyKLEAAjj94vwxc/z6yAIY7+ru/HfYjJBZZgXiyd/sj3edvPln8WzuX8l9x2E8zDScBHlxoPDQA3k3ce3fYj4AATT+zi91/ROTSSka603J5X0ZGulKSYymJnM0X5OVDa4flqsHsssUfrY0vWrJvvtLW4i+yQhNg0dJy8GxFNvTSI+i3+e+9LNPP7KIUYKD5Pbvl+IP3h/0YaGAomyIrEBEr7fbh3FS5KuOlatsLv23FFb5Q0SIEAYGwFwmCAHNwDXA82L0CI93cHNhpmy/Iy0XdacrLHhQtLROL1oqT/dxqurrbQQDzlP1HEGAOFv94srMCTBsMDjfy+cP+HnXb5NdKy+19oaKleNZSdWcw4YPjD94v5SOHZfVdfxD2o6BN08/sIu0fc/a0QbIC/tl8Qf6NjWNZay2c22/b+KIlJ0rVphP92uUov1+0tPzkbEXWdFG38VvhqZ1y5qXvyNif/6V0XbYx7MeBQ9bMtEzcezc3/hmGrED7Guz2lQid/O1ye6a/HY4L/BW9dERwwdLUcXxWPnZUDt10gwzfchvZgBiYfmaXFJ58jG5/g9VmBey6K1mBxt594QUM6/GRXw1+Trju8CtUtMxaZAOCYGcD1t77Gem7dkvYj4M6pQP75cSffoFdf8Lk0ko29GakaGlZqGpKBLLybh/t6+TCb2urxd/OBkxVtIx0pWjw8FH52FE5eucd0rdpswzdfAuBQASw8EPEPkGgpD+jdKUqKmnHCVe6iAfehLHw2zyd8StaWg4ULcmVqvUXNcCj+e+9LPPfe5lAIEQs/Ggkq5TKpiUxo4ffNjAol/Sw2/eT3WNyolQNtMbfii+H/IuWln3zFRnOKPoDfGYHAtnRMRm+9XZGCXfA9DO7ZG73Syz8aMkePWxaVoDdfjBqFv5AuvrdOu8fNqPUxp1vufQ1r78ogUCwyAr4b37Pbjn7/X+WMy99h+Y+eFLW4WYF/nVmpu2f+7aBQfm53gzvbp/5PcCnHbf956GfrWi9v/ZrgYz5K1S0FCpkBIJiZwVERIZvuU16r3knwUAbWPQRhLhdSMRo3uBEYeFvJtA5vwQCwSs8tVMKT+0UkaXMQP+WrdJ71dXMFGjAmpmWM996UeZ2vySl1w+x6CNwUb6mmN1+cMJs7HOjI4P+7UAgl1acGghQbWYgOzomXZdcmuiAoHRgv5z913+R8pHD7PIRqqhkBezdPuf2gxGXhd/W0Zt+ak8NjHSlpD+j+CYMSPnYUSkfO3peI1vfps3SveEyya6/2LigoHRgv5QnxuXs9/9ZFg8eYIePyAojK3BVPl9/Uov3rk+i0tHfjlCu+rMDgYwStaaLaLRTajMENjtTYAcG2dFR6bnybZE8aWDNTIt16uQbu/rFgwdEROjWRywFnRWgth+smvp+bNeuUO/6tQcKjS9WFX0C4WiUKbDZwYGIvBEgLH19dOl/LxoREZH0qtVv/ByngYM1M730v6dOLj3HxPi55zm29L81Czy7eZjOr2uKc6rhbh8+sv99otrY50aoAUAt+gSixw4ORNhlA51iX0jkJiswlFEylEmx6AcobvV9JyITANjeKA8sWEJ5AEim7OiYiIgMbL3ujdJU9qKRRE1mbJUVyKmlYIFequDEub7vROQCAJtdHjhRqqrBNOUBwERuelDm9+xOzOJfrzYrsFDV0pNSNPQFyIT6vhORDQBsFU15AIi72hMo9m7ezSkUa2Zajj/4uQCfMB7sC4kQDJPq+05EPgCoVXuMcCijKA8AERLkiZKJe++mERSBsEc3m1bfdyJWAYCtaGkpWpryABACr7t5t6af2ZXY1D+CE7WLecIQywDARnkACEb9br73qqslvWp1x+dDLKX+7+/o7wmzJaW+70SsA4BanB4A3GmUsg96N+/WxL13h/0IMISJx/i8MiYAsDFcCDhfVHbzbpH6h1emH+PzyrgAoBblASRFHHbzbpQO7Cf1j7aR5nfG6ADAVl8eYGIW4iquu3m3TvzpF8J+BMQQaX53EhEA2GrKA0J5AFFl2m7eLVL/cMNO809VNAu/S4kKAGrVlwcYp4lOS8pu3g1S/3DKvithfLHKe7tNiQ0AbPVXE1MegJ+Svpt36+jv/nbYj4CIS9q0viAlPgCw1ZcH7NnbgBPs5r07+dDnmfaHhkjzB4MAoIGl8gAzBXA+dvPBKR3YL4Wndob9GIgYO82f5Gl9QSIAaIKZAsnEbr7zSP2jVs0xvrAfxWgEAA4xU8As7Oajg9Q/bBzj6ywCAJeYKRAv7OajbX7PblL/Cce0vvAQALSJpsH46N5wmQx//LdY9CNm6aKfz4X9GAgJ0/rCx4rlg0JlKSuwb74i44uWlLUmjo2I8rGjUnhqp/x0yzVy9BMfl/k9u8N+JJxT+PJfkfpPoKlyVfbNV2TffIUaf8jIAPioaC0dUTlRqqrBNE2DUTP/vZdl/nsvS3Z0TIZvvV0Grn8fWYGQkPpPFtL84bO0PlH/tfNWp4xSG3e+5dLXOvZECUDTYLQN33Kb5D9wE81/HWTNTMvrN/86u/8EoJs/GiZLpdN3HTu6qv7rZAACRtNgtBWe2imFp3ZK36bN0r9lq1zw4ZvDfiTjTdx7N4u/4ejmj5YnCqcfbfR1MgAhoGkwurKjYzKw9TqyAgGZ37Nbjt55R9iPgQCQ5o+u2/7z0M9WtN5f/3UCgBDl0kqGMopJgxHVt2mzDN18i/RduyXsRzECqX8zkeaPth2TEw/8sFj8o0Y/RgAQEUwajC6aBv1x9BMf55pfg5Dmj76nC4XnX5iZvnGlHycAiBiuJ462vk2bZc3vf5rygEvTz+ziml8DkOaPj1fm5vZ+6eSJd2mRmZX+GwKAiMoooWkwwuysAE2DrVkz0/LTLdeE/RjwgDR/vDhZ/EXqAgAlkv/KpRumg300uEXTYLRxlLA5Uv/xRZo/fp4uFJ7/5sz09laLv4hIuu7/XxzLZm8c7epaG9CzoQ3FqshURcuJUlWqItKTVjpNeSAyinv/Xaaf/Z+ysPcHks7npevit4T9SJEx/cwumfqfXwn7MeBCWWt9vFRVB4qWnC5rUv0xsmNy4oE9c3N3iMiik/++PgCQs7q6/tr+gc2+Pxk8q4rIGUvL8VJVLVhaelJKsinigKgoHzkssy++ILPf+FtRmYxk16+XVE9P2I8VmtKB/XL0d34r7MeAQ0VLy5EFS44uVtVMRUs17AeCY5Ol0um7jx254Uip/Dduft6y1UOJ5L84OnZgXVfXhf49HoJC02C0JfkoIan/eCDNH29uUv71Gi4YA+nUtr+8+C3/4P3R0Ekj3TQNRlXSjhKefOjzzPqPMLr542+yVDr98Mnjdx8tlR9v99dYcaUY68pu//zo+sfa/YURHu4fiDbTmwZLB/bLoZtuCPsx0IDdzT9rUduPsx2TEw/8qFj8Qju7/lpNt4oEAfFmHyVk0mA0mVoeOPhr1zHtL2JI85vhlbm5vX9x6uSvNxrr246Wi8JAOrXtj9eNPEtPQLwxaTC67PsHhj/+W7EvD5D6jw7S/OZ4ZW5u79dnph72ku5vxNFqkFFq4ydWrf7aO/r73+rnb47O4/6BaItzVoDUfzSQ5jfHZKl0+onC6UdXmuXvlasF4Mpc7k/uWXfRHwbxIOisjBIZTJMViKq4NQ1y0U/4SPObw174/ajzN+P6zU82wDw0DUZbHJoGSf2Hw07zT1U0C78BOrXw29re+l2Zy/3JR4cvvIPeAHNw/0C09W3aLP1btkbu/oH5Pbvl6J13hP0YicJsfvP41dnvxrJJgE6dqFS++/dnZh8taf1zV+Ryv+DnQyEc9qTBk+WqLJzbTRAIREf5yGGZ37NbZr/xt1KZGJfs2rWSHg43/rZmpuXYp+6U6pnZUJ8jKabKVZlYtOTwYlWKjOqLvYwSWdedkg29af2RVRe8K6vU24+WytkzVvWQOBzn64Uvb/eMUhuvH8zv+Mjw8Af8+PUQHTQNRlvYTYOk/jtjfNES0vzmaHVEu6y1/tzR41/5u5kzT5yxqt8N6jl8faEPpFPbtg+v+jP6A8xD02C0hdE0SOo/WEVLy1SlKhzjM0c7/Vb75ovjD02eeuz7c2cf8rs8EMibnEDAbDQNRlsnmgbp+g/OVLkqU+Uq9X2D+PHODCIrEOhWbiCd2ralf/BOSgNmomkw2uysQBBNg1z046+y1nquohXH+MwS1AC2F6ZmX3148tQjXgcDdeStTY+A+YYzSoayZAWiys+sAKl//5DmN08nN0b75ovjv3d44r52A4GOBABKJD/alb3xk+tW3fn23r63881uLu4fiDavTYPWzLT8dMs1Pj9V8nCMzzxhvvv2zRfHbzt09DfclgYCLwG8Nz/w0c+Mrf2N2r8QZlQnA/cPRFe7TYOk/r1hWp95otQT9ejx09/+0vHTdzq9LMj3N3Ptbv/9Q4Nvb/Xf84Ewn/0B6c8osgIR5DQrMP3MLjn+4P0deipzsOExU1TLnmWt9Xv/49BvOikL+PYyzii18eq+3K13rVt1++V9uRG3P5+UmPloGoy2ZlkBLvpxj3eameKS2fzskcknny3MfLTZf+P5T7BSmr9dNMUkQ1SjZyypbxok9e8cWU3zxLW36dHjp7/9Z5OnfnWlH2/7DzKQTm372Orhe+5Ye+F72v01muGSi2SI6wcrKfo2bZbuDZcx7a8F0vxmilJ9v13NMgFt3Qb4O2svfCSohb8RBmMkQ1xSa4CNjKWZTMtQXv2j/b/S6ISA48uAlEj+nf29933z5y999h39vT/j7+M1l0uf+8fIpCSbWrqwBuYpVkVOlqsyVdGSVSKZlOg0WQFEUO2lPGcsLdzLE38ZJXJBRsmGXEbWGLYR0Vou+v7c2afqv+7oTziQTm3beenYV9pp7gsKl2OYj6ZBRA31ffMkoQxZ1lq/de9rQ/V3CWRa/cR39vd+7vHL1t8X3KO1Z6Q7LSPdlAdMVtEi44tVGV+sGpeSQ3xQ3zdTg/q+kYu/iEhWKZVWak1Fa2cBgBLJf3A4/+f3r193a/CP1z56BnaqAAAfAklEQVR7UbiIWpzRChUthYolmQXL+Ggd0VBzjI/vM4PQa/SmFQOAT65b9WwnG/28yqWV5NJpWd2V4vSAwWqyAooPMoJAVtE8SUjzN7PSWtgwAHhnf+/n4rT418oqpSgPJMNSVqDCpEF4xm18Zmrwbkjk+2Fi0Wr49WUBwEA6tS2KNf92UB5IhqKl5UDRkowSRdMg3Kip7yveDeZo0DOU2BdC0dIrboKXBQAfWz18T+BP1GG15QGifHPRNAinqO+baaSbDUCtstb6J2crK/5lLAsAbl8z/O5gHyk8WaXUUHZpYWBOt9loGkQjlAXNk0srGcooPuN1ylrr185aTTNb5wUAGaU2JuUvMJdWsqE3I+s54mM0OytwolRVg2maBpOI+r6ZknSMrx2vnbVUq+/38wKAXEqtD/SJIujNpsE0Qz4MVtHLmwYpD5iN+r6ZOP3TXNHScnDBcrSOnRcAFKv6SNHSif2LtWvG9nzv8UUGfJrojaZBygNGqpnPz8JviKQf43OqaGn5ydmK42z2sh6AqUpVcmnHVwQYiZkCycBMAbPQ12Me0vzOjS9arjetywKA8cUqUdY5zBRIDmYKxBelO/MQkDvnJuVfr+EgoNfOWuryvpbXBCSKXR6gadBszBSIDxZ+s5Dmd2980fI036bhKl+0tBw8W5ENvQQB9WgaTAZmCkSX15ceooU0v3tedv21VlzhCxUtQhDQVG3T4MSiJbOW5qVkIHumQK5UlaGMkpHuZPfIhIEb+cxDmt+9stb6SNFSfpWim67uBAHO2DMF7JcUTYNmKlpL/67ji1UmjnUIR/nMYqf5+ey4E9TnoOXKXqhoKc5XZEMPkVorNA0mB+WBYLHwm4XZG+2bKlfl9YXmE/3a5WhrX7S07JuvyGW5NP+ADtE0mAy15QFOD3jHwm8W0vzt60SPmavc/oGiJcPlqqzPpXnJOUTTYDLUnx6gk9kdFn5zkOb3ppPrhOvifqGiZXauotZ0pWiGcommQfMxXMgdFn5zMEPDmzA2iG1199kvuamKpq7TBpoGk4G7B1bGwm+OBoEui78LYWaGPbX322nP4XKVnU4baBpMhtq7By7pSXYfDQu/GUjzeze+aEnYmz9fzvfZOx1Snu2jadB8FS2JvYSoZk5/Iv68piLN703U5ln4esC/UNEya1WEe9fbR9Og+ewS2olS1fiGQTJbZmhw3NXI79egRDXz5fuEH/vedQIB77ie2GymNgzS22IG0vzeRT3zFdiIPzsQoDTgnX098Uh3OhJ1I/jPhNsIa3b7sXpunC+XVoy89iguma+OzPitDQSYmuaN3TTI3edmqp0nMJiO/ufFzk5FpaaJ9vF+9i5uZduODvmvn5rGN1r77KOENA2a6c0M2lLTYJSCgalyVYpVzaJvANL83kWtsc+NUG75qT0WZXoTVNDqmwbjkHaCO42CgZ606thL297lL1ia7y1DkOb3rqY3K7ZrV6jX/NV2Q9Mw6J29Q7yItKyx7GBAKku3EmaUvBEQ5FJKelJKMilpK6Aua60rVVELVS3FqpapipZylWmVJiHN751J5ddI3PNb3zDIN6g3dtPg6q6UnqtoFaeaFNypDQhqqIwSyaaU5FqEAcVzP+3cQk/0bSDS/P6IW33fiUgEALVq+wSGMorygAdZpdRQVp13/4AJUStaq2iRiqWlWPO1jKqPE2AyO83PO7R9ca7vOxG5AMBWtJaOutnDUohevaFpEPx7JwNDe7yrOd0SqcE9fotsAGCrGZZCecAHNA0CZhrpZqPkVdIypZEPAGpRHvAXTYNAvJHm94eJ9X0nYhUA2CgP+IumQSBeSPN7Z3p934lYBgA2ygP+omkQiC77yCfHpb2J+nz+Top1AFCL8oC/7KbBDRKNe6uBpLKP8fFO8yapaf5mjAkAbLXlAaJlf9j3D9A0CHSOfTEUaf72cTNlc8YFADaGC/mPpkEgeNye6l1SjvF5ZWwAUKt2jjqpNO9qrycmrQZ4R5rfH2Qp3UlEAGCraRpURNn+sLMCdmPNrMXseMAp0vzelbXm9FKbEhUA1LLLAw0+gGiD3TRIzQ1ojQ2IdzXH+EjztymxAYCt/mpiZgp48+akweRN1QKa4VIef3CMzz+JDwBszBTwH/cPAG+m+fszivq+B/Qb+Y8AoAFmCvir/v4BPsRIAqb1ece0vmARADTBTAH/1TYNcpQQJuJSHu9I83cGAYADtTMFaBr0B/cPwCRcyuMPMoSdRQDgUn3TIB94b7h/AHHGMT7vSPOHhwCgTcwU8B9Ng4gLPvPekeYPHwGAD2rLA6QBvaNpEFHEtD5/8JmODgIAH9E06D+aBhG2Bsf4+FC7RJo/fJbWJ+q/RgAQAJoG/UfTIDqNY3ze1YwIZ1pfiCZLpdNaZKb+6wQAAaNp0F80DSJIGSVC9s470vzR8kTh9KONvk4A0CE0DfqPpkH4hfq+d6T5o+vHCws7G32dACAENA36i6ZBtItjfN6R5o+2HZMTD1S03t/oxwgAQkTToP+4nhhOkIXzbqpclalylRJchL0yN7f3h8XiH6304wQAEUDToP+4nhiNsPB7w+cpPl6Zm9v7pZMn3tXsvyEAiBiaBv1Vez0xO5Zkor7vHUN74sVe/Bt1/tciAIio+qZBrif2zv47vIiZAonA+X3vCJrj5+lC4flvzkxvb7X4izT4QDw0OnZqXVfXhcE8GrygadB/NA2ahzKaN6T542vH5MQDzWr+9dL1X5iolPPX9g9s9vex4IeKFjljaTldrqqzlpaelJJsijjAi1xayZqupetbLa2lWA37idCu4YySDbmMjFDjb0vR0nKyXJX/LFpqpkLzbJxMlkqn7z525IYjpfLfuPl5yz4lSiT/xdGxA2QB4oHdjr84yxw/NPZ5Q5o/3p4uFJ7/1uzMPSsd9Wum4SdmIJ3a9pcXv+UfvD8aOsVudBrKpHgR+oTyQHTR2OcNaf74myyVTj988vjdR0vlx9v9NVb84Ix1Zbd/fnT9Y+3+wggPTYP+YuRwdLDwe8OlWmZw0+jXTNMPEEFAvNE06C/KA+Hhe9kb0vxmeGVubu/jhVOfOmNVv+vHr9fygzSQTm3743Ujz9ITEF9ccOI/ygOdQY+LN+OLlpDmjz8/0v2NOFoNMkpt/MSq1V97R3//W/38zdF5vFD9RXkgGHyfto80vzkmS6XTTxROP/qjYvELXtP9jTjeDiqR/BW53KfvWXfRH/r9EOg8mgb9RXnAHyz87SPNb5YdkxMPBLXw25bNAWhi8USl8t2/PzPz8pp05pdGu7rWBvVQCF5VlmYKnCxXZeFcepBAoH1ppdRAJiXrutOSSylZ0EIg4EIureSSnrRc3EOZyo2y1nq2otXBBUtOlKrMsTDASHdKLu5Jy38sLBw6XCqfKGl9KKjfq61PGtkAM9Fh7S/KA61llMglPWl2/C6R5jdLs3fvvvni+EOTpx77l/nik+2c9W/G00s+o9TG6wfzOz4yPPwBvx4I0cBwFf/wsl6OVH97CCrN4mbTVdZaP3ai8Pd/fbKwo2OnAJwYSKe2bR9e9Wc0CZqHF7V/6BPg+6ldnDoxi9ds6wtTs68+PHnqEa+nAnzd3hEImG2km6ZBv4wvWonKCDCcyj0yR+bxe57Fvvni+O8dnriv3UAgkDc5gYDZ2MX5x+SdHfMn2kOa3zxBvzPbDQQC/VSOdWW3f3L12i8yRMhMHCX0j0kvfab2tcfkYDCpOp35evT46W9/6fjpO502C/r+4VQi+dGu7I2fXLfqzvcPDb5dxKyXGxojxeuPuF7Swm6/PfSFmCnMJuqy1vq9/3HoN51kA3x7uoxSG28cGrzvM2Nrf2OlqJ9AwHzs/vxR1lpXqqImFi2ZtaJ7N7sd+PVnFP/eLvAuNE/UjlF/9sjkk18tzPxus0FCnh9yIJ3a9rHVw/fcsfbC9zj9OUS95mNH6C97ylvYwYD978qi3x7S/OaxNz0j3W7m6nXGo8dPf/vhyVMfWikIaPvDO5BObfvj0bVftNP87ShrrecqWvGBMBtNg/6yu8MXLB14QGAv+D1pRa9Hm9jwmCku77XPHpl88tnCzEcb/ZjrT3NGqY2/s/bCR9zs+J1gjrX5aBoMRtHSslDVUqxqWbC0FLW4DqgzSiSbUpJTIj1pJbmUkp6U4t/JAzvNH3bWBv6K45C0q3+0/1caDQ9ydRnQB4fzf96sxu8HamPJQNNg8Ow+AhGRheryz1NPauljHKcXWRywmTFP3DcvL0zNvnrX4Yn/Uv91R3+SgXRq285Lx75yeV9uxP9Ha4y0WTLQNAgTUM40kynvp7LW+q17Xxuq7wXItPqJHxrOP3H/+nW3BvdojWWVUiPdaRnpTtM4Y7CitXTc7USpqmgaRNzUbFQUGxVzNKjvx/qllFVKpZVaU9HaWQCgRPKfXLfqWb9r/e2wU8WUB8xV0SKFipZCpRKb5hokV827KNYLA84Xx/q+Fw0DACWS/+LFF33XS4d/EHJpJRt6M7Ke8oDRipaWA0VLMgtWrOtuMA/ZSPNE7fx+EFb6fm0YAHxwOP/nUVv8a1EeSIaKFhlfrMr4YpWmQYSGfiQz2ZnGmnkWRi7+IiITi1bDry8LAAbSqW1h1PzbVV8e4MiNmZbKA5bkSlUjmnIQffa8hfHFKt9nBmmwmTD637fZiZRlAcDHVg/fE/gTBcAuDxCtm42mQQSNXiPzxP0YX7vKWuvXF6wV/8DnBQBKJH/7muF3B/9YwakvD3Ae10w0DcJvlBPNk4T6/krKWuvXzlpNT6ecFwCklVpj0l+Snea56Fwqj6yAmeqbBpP4YUd7yBiaybRjfG7Zi3+rYPa8ACCXUusDfaqQ5NJKcum0rO5KxfKqVThT0zSoaBpEMzU9Q5zfN0jSjvE1UrS0HFxovfiL1AUAxao+UrS0sX95b5YHGNdpOpoG0Qj1ffMkOc1fb6pcldcXLMfZrGVNgFOVquTS0bvW0G+UB5KhtmkwiU1AWEJ93zxJT/PXG1+0ZHyx6urnLAsATpSqiXpJ2uUBZgqYrXamAE2DyTG+aBHcG4Y0//nOpfzbWreWBQAVLXJwwZLL+1peE2AcRg4nA02DZqOxzzxJPcbXSju7/loNV/mipeXg2Yps6E1eECCyfOQwTYNmqm8aZFcRb8znN0+DaX0Q/0paK67whYoWSXAQIELTYJIwUyC+yNiZp0FAzuIv/n+vN13d7SBgfS6d+OiLpsFkoDwQH/TsmIU0/8rsspaXdH8jLbf3hYqW4llLbeghPSpy/kyBuYpWvIDMRHkgulj4zUKav7lzjayBzKtwlN8vWlp+crYil/SkSY2ek1VKDWUVTYMJQHkgfDT2mSdpl/K45fZMfzscF/grWuRA0ZLhcpXdUJ36pkFeUmaiPBCOIHdA6CzS/K11MsPlusOvUNEya1VkTVdKRrrNHxjkBhcRJQPlgeCx4zdLLq1kKKNYM5oIo7TVVou//QKcqmhSoiugaTAZKA/4q2bhZ8dvAO7kaK6sdai9ZJ7O+NkpUcoCK6NpMBkoD3jDwm8O0vytReX73ZdD/vYuiHToymgaTAbKA+5E5UUI7+w0P8HvyqL2/e7rlB8CAWdoGkyG2s8DadDzRe1FiPbRzd9aVKdUBjLmj0DAGZoGk6H2auKk9wmw8JtjpJs0fytRz/YGOueXQMA5mgbNl+Q+geKb39cs/DFGmt+ZuAyr6sigfzqlnaNp0Hx2n8CJUlWZHghEfQcEZ0jztxZ2R387OnrTj70DslOhjH5cGU2D5jO5YTAuOyCsLKNEBtNmfV8GIc5lrVCu+nsjFarE+B2QH7ie2Hz1WbI4BscEqmawj/HxXm4uqo19boR616/JO6AgcD2x+WqD4zjsvuzaPkFp/JHmd8akd2+oAUAt+gTcoWnQbBX95mciaoNVWPTNQZrfORPLWpEJAGxJ7pRuh900aB8lNO0bFOdlyt54YQ9lU9KTUh15aRctLQtVLVPlqsxamkDTAKT5nTH9TorIBQC22k5pIlRn7KyAXZviZW2eNzMDloi8uYPrSSvJpZSnoKCsta5URS1UtRSrWhYszfeQYRpkWHmpNmBCfd+JyAYAttpUKOUBZ+ymwTJNg8azPx/1q3RGiWRTSnLnXl89dUHBQs33Q1GLlKtaKprFwFT0WDljUn3ficgHALVqjxEyjKI1mgaTq6JFKpaWYu0XkCik+Z2J4/l9v8QqALAVraUdLeUB52gaBJKBNL8zcT6/75dYBgA2ygPu0TQImIk0vzNJqe87EesAoBanB9yrbRokKwDED2l+59jwLGdMAGBjuJB73D8AxAtpfmdMP8bnlXEBQC3KA+5w/wAQbWxqnCHN74zRAYCtvjwQlYlqUVZ//wARNBAO0vzOkeZ3JxEBgK12ohqRtDNvHiVMc5QQ6CDS/M4w76R9iQoAaplw+1qncZQQCB6bE2fs5uXxxSp/UW1KbABgq7+amPJAazQNAv4ize8cmUj/JD4AsNWXB+quxUQDNA0C3jTIQLL4r2B80eIGSp8RADRgX7bCTAHn6psG+aACK2uQ5uf90gAzSoJFANAEMwXc4/4BoDE7zU+ZsTUyip1BAOAQMwXco2kQWMqOcXmZMxzj6ywCAJeYKeAe9w8giRr0EvGiaIBpfeEhAGgTTYPtqb1/YGLRkllL86GHUSgXOsO0vvARAPjAbhrMlaqk+hyymwYZ4gETcIzPObKA0UEA4KOitbSInShV1WCaXYATNA0izpjW5wxp/vBZWp+o/xoBQAAqmqbBdtA0iLggze8Maf5omCyVTmuRmfqvEwAEjKZB92gaRBRxjM85PrfR8kTh9KONvk4A0CE0DbaHpkGEjWN8zpDmj64fLyzsbPR1AoAQ0DToHk2D6DTq+86Q5o+2HZMTD1S03t/oxwgAQmQ3DTJp0DmaBhE0PovOkOaPvqcLhed/WCz+0Uo/TgAQEVxP7B5Ng/ALx/icIc0fH6/Mze395sz09mb/DQFAxHA9sXs0DaJdGSVySU+a2/haIM0fL6/Mze390skT72rU+V+LACCiaBpsT33TIOUBNEJ93xkC6vh5ulB4/psz09tbLf4iDb7pHxodO7Wuq+vCYB4NXpCmdI+UJWpR32+Nz0x87ZiceKBZzb9euv4LE5Vy/tr+gc3+Phb8UBWRM5aW46WqWrC09KSUZFO8yJpJK6UGMilZ152WXEqJEpFiNeynQidllMi67pRs6E3rVV1pxWemsaKl5ciCJUcXq2qmooWPSXxMlkqn7z525IYjpfLfuPl5yz4JSiT/xdGxA2QB4oGmQfeKNA0mAhkzZ0jzx5ublH+9hh+KgXRq219e/JZ/8P5o6BSmlLWHl595GL/dGmn++JsslU4/fPL43UdL5cfb/TVWXCnGurLbPz+6/rF2f2GEhxegc2WtdVYpRdNg/NEs2xoTNc2wY3LigR8Vi19oZ9dfq+lWkSAg3kiBusfOKH5o7GuNTJcZXpmb2/sXp07++kqT/dxq+YkZSKe2/fG6kWfpCYg3XpLu8dKMtpFuSl7NEMya45W5ub1fn5l62Eu6vxFHn5yMUhs/sWr1197R3/9WP39zdB4Xm7hHeSA6yGq1RprfHJOl0uknCqcfdXO0zw1XH6Arc7k/uWfdRX8YxIOgszJKZDBNVsANdlThYeFvjYyVOeyF3486fzOuP0gD6dS27cOr/oxsgDloGnSPl21n2Av/SPeykSUQ4XZMw3Rq4be1HUlfmcv9yUeHL7yD3gBzcJTQPcoDwbBn9BOUNsb3nVk6vfDbPL3llUj+1/IXPP6R4eEP+PVAiAaOVLnDcCF/sPA3xxXYZglr4bf5ss3LKLXx+sH8DgIB89A06B7lAffs7zNS/Y2NL1pCmt8c9hCfY6Xy18NY+G2+vtDpDzAXTYPusVtrjea+lZFVMk9Qx/naFcgHjkDAbDQNukO9djkySysjcDTPK3Nzex8vnPrUGav63bCfpVagH7yBdGrblv7BOykNmImmQXc4RkjwuJKy1nquohWlI7M8XSg8v3tu9pGoLfy2jry16REwH02DziUxEGDhb4w0v5l2TE488OOFhZ1+jewNSke3bRmlNv5CT89tHB80FzVdd0xvGGQEdWOUhcwTdkd/O0L5VCqR/BW53KcJBMzGy985k+q+BIErMz3gS6KoNfa5EfqHc6wru/3G/NAnaRg0l53+7c8oFoQW4pwSpgzUWBJLPkkQ9fq+E5F5GdMwaD6aBt2xswJRvtTFXvQJ7pYjzW+mpwuF5781O3NP1Ov7TkTuA0ufQDKwW3TO7hCPQjBgz4Ng0V8ZaX7zxLG+70RkP7xKJD/alb2R8oDZqBe7Z5cJOjUZbjijpCetyNw0QZrfTHGu7zsRi08z5YFkoGmwPUVLy0JVS7GqZaqipVxtL0uQSyvJKZGetJJcSklPSvFv0UKcezawMhPq+07E6tNNeSAZaBp0p6x1w7+nsta6UhW1UG28MvWkln5KJiX8Pbtk0qkNvCku5/f9EssPPeWBZKBpEFFDfd88ptb3nYj9W5XyQDLQNIiwUN83k+n1fSdiHwDYKA8kA02D6BSO8ZkpKfV9J4x7gVIeSA6aBhEE6vvmsdP8SarvO2H0m5PyQDLQNAivuI3PTHaa/1ip/PWk1fedSMTLkvJAMtA0CLeo75uJNL8ziXpLUh5IDpoG0Qz1ffOQ5ncvUQFALcoDyUDTIGpR3zcPaf72Jf6FyNXEyWDPsKdpMJk4v28e0vze8SasMdaV3f6Lub4byAqYzW4apDxgNur75pkslU7/49zcP5lyG1/YCAAaoGkwGSgPmIn5/OZJ8rS+IPHSa4KmweRgpkD80dhnHqb1BYu3nUM0DSYDMwXih/q+eZ4uFJ4nzR88XnAu0TSYDMwUiD4WfrOQ5u883mwejHVlt1MeMB8zBaJlfNGivm8Q0vzhIQDwAU2DyZBLKxnKKBnpTof9KIlDR795OMYXPgIAH9E0mAyUBzqHhd8spPmjhbdXQGgaTAbKA8Fg4TcLaf5oIgAIGOWBZOD0gD9Y+M1Cmj/aeFF1EE2D5mO4UHtY+M3BpTzxwQsqBGQFkoHhQq2x8JuDS3nihzdTiGgaTAbuHliOhd8cpPnjiwAgImgaNB+BAAu/KUjzm4EAIGKYNGi+JPYJMKffDKT5zZKIl09ccT2x2ZIQCEyVqzJVrrLwxxxpfjMZ+dIxDU2D5jOpYdBO809VNHP6Y4w0v/ni/7ZJEJoGzRfneQLs9s1Amj85YvWCwZtoGjRbRokMpqM/ZbBoaZmqVLmcxwCk+ZOHACDmaBo0X9SCgalyVYpVzaJvANL8yUYAYBCyAuazg4GetOrYZUT2Ln/B0qT3DUGaHyIEAEaiaTA5agOCXEpJT0pJJiVt9Q+UtdaVqqiFqpZiVctURUu5qtnlG4Q0P2oRABiMpsHkyiiRbEpJrsUnvHhucWehNxdpfqyEACAhKA8AyUKaH60QACSM3TS4tX/g/WQFAPOQ5odTBAAJRlYAMANpfrSDAAA0DQIxRZofXhAA4DxjXdntNA0C0UaaH34gAEBDGaU2Xj+Y3/HL/f3vIisARMOOyYkHSPPDLwQAaIqjhEC4Xpmb2/vS3JkXflQsfoE0P/xEAADHaBoEOueVubm9jxdOfYo0P4JCAADXaBoEgvN0ofD8t2Zn7iHNj6ARAMCTsa7s9l/M9d1AVgBon32MjzQ/OokAAL4gKwC4Zx/jO1oqPx72syB5CADgK5oGgdY4xocoIABAYGgaBN5Emh9RQwCAwNn3D1AeQBKR5kdUEQCgo2gaRFKQ5kfUEQAgFDQNwkRcyoM4IQBAqGgahAm4lAdxRACAyKBpEHFDmh9xRgCAyKFpEFHHtD6YgAAAkUbTIKKCY3wwDQEAYoGmQYSFY3wwFQEAYoWmQXQK9X2YjgAAsUXTIPzGMT4kCQEAYo+mQXhFfR9JRAAAo9A0CDeo7yPJCABgJJoG0Qz1fYAAAIajaRC1dkxOPEB9H1hCAIDEoGkwmajvA40RACBxKA8kA/V9oDkCACTaWFd2O+UBs7wyN7f38cKpT1HfB5ojAACE8oAJaOwD3CEAAGowUyB+aOwD2kMAAKyA8kB00dgHeEcAALSQUWrj9YP5HZQHwsfCD/iHAABwiPJAeOyO/mOl8tdZ+AF/EAAAbWDkcGdwlA8IDgEA4AHlgWCw8APBIwAAfEB5wB8s/EDnEAAAPuP0gHss/EDnEQAAAWG4UGss/EB4CACAgHH3wHIs/ED4CACADqFPgIUfiBICAKDDlEh+tCt7Y5L6BJjTD0QPAQAQIpMbBidLpdP/ODf3T9+anbmHOf1A9BAAABFgUsPgK3Nze1+aO/MC43qBaCMAACLE7hPY2j/w/jhlBezdPml+ID4IAICIsrMCv9zf/66oNg0+XSg8/+/F+W8wox+IHwIAIAaiEgzYO30WfSD+CACAmLHnClzS1f0LQQcE9oL/emnxxz9eWNhJMx9gDgIAIOYySm1cl81cO5TO/MwlXd2/sKGr6zK3/QOTpdLpw6XSsYOl0oHXS4s/nrIqP50sV/aw4APmIgAADKVE8mml1uRSan2jHy9W9REREUvrE6TyAQAAAAAAAAAAAAAAAAAAAAAAgKj6/89p1iIstuEpAAAAAElFTkSuQmCC;spacing=-4;fontSize=7;" vertex="1" parent="1">
          <mxGeometry x="436" y="268.81000000000006" width="26.38" height="23.19" as="geometry" />
        </mxCell>
      </root>
    </mxGraphModel>
  </diagram>
</mxfile>
